<?xml version="1.0" standalone="no"?>
<!DOCTYPE svg PUBLIC "-//W3C//DTD SVG 20010904//EN"
 "http://www.w3.org/TR/2001/REC-SVG-20010904/DTD/svg10.dtd">
<svg version="1.0" xmlns="http://www.w3.org/2000/svg"
 width="30px" height="30px" viewBox="0 0 1280.000000 1221.000000"
 preserveAspectRatio="xMidYMid meet">
<metadata>
Created by potrace 1.15, written by Peter Selinger 2001-2017
</metadata>
<g transform="translate(0.000000,1221.000000) scale(0.100000,-0.100000)"
fill="#000000" stroke="none">
<path d="M0 6303 c1 -6257 -1 -5989 44 -6098 41 -98 110 -152 236 -187 35 -10
1312 -13 5998 -15 l5952 -3 0 215 0 215 -5900 0 -5900 0 0 5695 0 5695 5970 0
5970 0 0 -919 0 -919 -27 -5 c-39 -7 -189 -39 -388 -82 -315 -68 -400 -86
-470 -100 -38 -8 -112 -23 -162 -34 -51 -12 -95 -21 -98 -21 -3 0 -5 35 -5 78
-1 151 -75 232 -213 232 -65 0 -114 -19 -154 -59 -43 -43 -63 -92 -76 -184
l-12 -82 -50 -6 c-108 -13 -313 -39 -375 -49 -36 -5 -123 -17 -195 -26 -71 -9
-177 -22 -235 -30 -58 -8 -175 -23 -260 -34 -85 -10 -225 -29 -310 -40 -85
-11 -191 -25 -235 -30 -139 -17 -387 -50 -455 -60 -36 -6 -119 -17 -185 -26
-66 -8 -190 -24 -275 -34 -165 -21 -399 -52 -570 -75 -148 -19 -415 -54 -545
-70 -145 -18 -326 -42 -400 -55 -33 -5 -89 -12 -125 -15 -36 -4 -108 -13 -160
-20 -52 -8 -151 -21 -220 -30 -69 -8 -192 -24 -275 -35 -82 -11 -202 -27 -265
-35 -63 -8 -185 -24 -270 -35 -85 -11 -229 -29 -318 -40 -90 -11 -173 -22
-185 -25 -12 -3 -80 -12 -152 -21 -71 -8 -177 -22 -235 -29 -182 -25 -402 -53
-840 -110 -63 -8 -133 -17 -155 -20 -78 -11 -532 -70 -690 -90 -66 -8 -147
-19 -180 -25 -33 -5 -93 -13 -132 -16 -66 -6 -73 -9 -73 -28 0 -11 14 -95 30
-186 17 -91 33 -178 36 -195 3 -16 12 -66 20 -110 9 -44 24 -129 35 -190 10
-60 25 -144 33 -185 18 -96 53 -286 77 -420 10 -58 26 -143 34 -190 9 -47 18
-96 20 -110 2 -14 11 -63 20 -110 9 -47 27 -148 41 -225 46 -254 76 -421 88
-485 3 -14 12 -65 21 -115 21 -119 51 -284 77 -420 11 -60 26 -146 33 -190 8
-44 16 -91 20 -105 3 -14 12 -63 20 -110 8 -47 17 -96 19 -110 3 -14 12 -63
20 -110 13 -73 28 -153 51 -275 3 -16 12 -68 20 -115 18 -103 22 -126 30 -151
6 -19 65 -19 3621 -19 l3614 0 -4 -67 c-5 -105 -26 -359 -36 -454 -6 -47 -10
-111 -10 -141 0 -31 -3 -63 -6 -72 -6 -15 -329 -16 -3563 -16 l-3558 0 -61
-31 c-84 -42 -114 -91 -114 -188 0 -43 6 -80 16 -99 21 -40 78 -87 125 -101
28 -8 992 -11 3727 -11 l3689 0 51 24 c63 29 100 76 113 142 8 41 21 193 37
454 2 25 10 137 19 250 8 113 22 304 30 425 8 121 19 265 25 320 5 55 14 172
20 260 5 88 12 183 14 210 2 28 9 120 15 205 6 85 16 207 21 270 6 63 17 214
26 335 16 233 21 275 35 275 5 0 9 90 9 200 0 109 4 232 10 272 5 40 14 153
21 250 21 331 36 537 49 678 6 63 17 210 25 325 26 395 45 650 55 750 5 55 12
152 16 216 6 116 6 117 33 123 14 3 60 13 101 22 41 8 84 18 95 20 85 16 487
102 610 129 39 8 102 22 140 30 39 8 147 30 240 50 94 20 190 40 215 45 25 5
77 17 115 28 l70 18 3 1287 2 1287 -6400 0 -6400 0 0 -5907z m10735 2935 c-3
-24 -10 -106 -16 -183 -5 -77 -18 -261 -29 -410 -11 -148 -27 -362 -35 -475
-8 -113 -17 -230 -20 -260 -6 -62 -26 -335 -50 -705 -9 -137 -19 -260 -21
-272 l-4 -23 -644 0 -644 0 -6 188 c-4 103 -9 252 -10 332 -6 297 -26 992 -36
1208 -6 122 -10 273 -10 336 l0 113 93 12 c50 6 160 20 242 31 83 10 222 28
310 40 88 12 207 28 265 35 123 16 401 53 480 65 30 4 74 8 97 9 l43 1 -5 -42z
m-1972 -315 c12 -181 27 -692 54 -1810 l5 -203 -1086 0 c-1045 0 -1086 1
-1086 18 0 10 -4 65 -10 123 -9 101 -31 417 -36 529 -4 97 -24 391 -34 520
-20 237 -39 625 -31 633 7 7 59 14 401 57 85 11 225 29 310 40 85 12 223 29
305 40 83 10 220 28 305 40 85 12 205 27 265 35 240 29 363 45 425 55 84 13
116 17 166 19 l41 1 6 -97z m-2678 -255 c4 -12 14 -158 50 -743 8 -132 19
-303 25 -380 11 -144 27 -394 36 -547 l6 -88 -805 0 -804 0 -7 68 c-3 37 -11
128 -16 202 -13 174 -18 232 -25 300 -4 46 -16 183 -30 372 -16 209 -27 340
-35 428 -19 200 -20 190 16 190 17 0 55 4 85 10 51 9 274 39 439 59 211 26
331 42 390 51 36 5 124 17 195 26 129 16 290 37 395 53 80 12 80 12 85 -1z
m-2057 -350 c7 -51 16 -163 22 -248 6 -85 15 -198 20 -250 6 -52 15 -158 21
-234 6 -76 12 -160 15 -185 2 -25 11 -138 19 -251 9 -113 18 -213 21 -222 5
-17 -23 -18 -490 -18 -552 0 -497 -7 -510 70 -3 19 -8 46 -11 60 -3 13 -12 65
-20 115 -9 49 -18 104 -21 120 -3 17 -16 86 -29 155 -13 69 -27 143 -31 165
-4 22 -9 48 -10 57 -2 9 -10 54 -19 100 -8 46 -17 94 -19 108 -6 28 -29 157
-55 305 l-18 100 96 12 c53 6 170 21 261 33 217 29 330 43 535 70 93 11 172
23 174 26 2 2 12 4 21 4 14 0 19 -16 28 -92z m156 -1880 c4 -24 13 -137 22
-253 8 -115 22 -282 29 -370 8 -88 23 -275 34 -415 12 -140 25 -302 31 -360 5
-57 6 -108 2 -112 -5 -5 -181 -7 -392 -6 l-384 3 -8 30 c-8 28 -29 143 -63
340 -8 44 -23 130 -35 190 -23 124 -26 138 -46 250 -8 44 -23 128 -34 188 -11
59 -29 155 -40 215 -10 59 -28 157 -39 217 -12 61 -21 113 -21 118 0 4 211 7
469 7 l470 0 5 -42z m2050 -5 c3 -27 10 -140 16 -253 6 -113 15 -250 20 -305
5 -55 14 -197 20 -315 6 -118 15 -260 20 -315 5 -55 12 -151 16 -213 l6 -112
-788 2 -789 3 -7 85 c-6 86 -35 442 -63 780 -9 102 -17 205 -19 230 -7 92 -26
327 -32 393 l-7 67 801 0 800 0 6 -47z m2610 -165 c3 -117 5 -220 5 -228 -2
-33 21 -863 26 -987 l7 -133 -1050 0 -1050 0 -6 58 c-3 31 -8 102 -12 157 -3
55 -7 125 -9 155 -2 30 -10 159 -19 285 -35 510 -56 845 -56 878 l0 27 1079 0
1079 0 6 -212z m1686 191 c0 -11 -4 -62 -10 -112 -5 -51 -19 -222 -30 -382
-12 -159 -30 -400 -40 -535 -11 -135 -22 -297 -25 -360 -4 -63 -9 -123 -11
-132 -5 -17 -40 -18 -550 -18 l-544 0 0 83 c-1 149 -30 1239 -36 1360 l-7 117
627 0 c625 0 626 0 626 -21z"/>
<path d="M9785 3159 c-226 -32 -434 -136 -596 -298 -91 -92 -143 -166 -199
-285 -72 -152 -93 -258 -88 -443 5 -169 24 -253 89 -392 44 -94 145 -236 216
-302 191 -178 470 -289 723 -289 319 0 627 146 823 390 116 145 183 302 214
500 14 91 15 118 3 210 -42 347 -221 619 -520 787 -191 108 -441 154 -665 122z"/>
<path d="M4505 2704 c-168 -27 -341 -113 -458 -228 -91 -90 -154 -192 -198
-321 -22 -63 -24 -87 -23 -230 0 -146 2 -166 26 -232 76 -212 202 -354 403
-453 212 -105 419 -117 640 -39 210 74 388 245 469 451 31 80 56 202 56 279 0
128 -62 320 -139 432 -39 57 -140 159 -196 197 -68 47 -175 97 -256 120 -73
21 -257 34 -324 24z"/>
</g>
</svg>
